<?xml version="1.0" encoding="utf-8"?>
<!-- Generator: Adobe Illustrator 24.2.2, SVG Export Plug-In . SVG Version: 6.00 Build 0)  -->
<svg version="1.1" id="Layer_1" xmlns="http://www.w3.org/2000/svg" xmlns:xlink="http://www.w3.org/1999/xlink" x="0px" y="0px"
	 viewBox="0 0 182.7 47.3" style="enable-background:new 0 0 182.7 47.3;" xml:space="preserve">
<style type="text/css">
	.st0{fill:#FFFFFF;}
	.st1{fill:none;stroke:url(#SVGID_1_);stroke-width:1.2;stroke-miterlimit:10;}
	.st2{fill:none;stroke:url(#SVGID_2_);stroke-miterlimit:10;}
	.st3{fill:none;stroke:url(#SVGID_3_);stroke-miterlimit:10;}
	.st4{fill:#F740CE;}
	.st5{fill:none;stroke:url(#SVGID_4_);stroke-miterlimit:10;}
</style>
<g>
	<g>
		<g>
			<g>
				<path class="st0" d="M64.7,21.5c0.7-1.2,1.6-2.2,2.8-2.9c1.2-0.7,2.5-1,3.9-1c1.8,0,3.3,0.4,4.5,1.3c1.3,0.8,2.2,2,2.8,3.5h-1.9
					c-0.5-1.1-1.1-1.9-2.1-2.5c-0.9-0.6-2-0.9-3.4-0.9c-1.2,0-2.2,0.3-3.1,0.8c-0.9,0.5-1.7,1.3-2.2,2.3c-0.5,1-0.8,2.2-0.8,3.5
					c0,1.3,0.3,2.5,0.8,3.5c0.5,1,1.3,1.8,2.2,2.3c0.9,0.5,2,0.8,3.1,0.8c1.3,0,2.4-0.3,3.4-0.9c0.9-0.6,1.6-1.4,2.1-2.5h1.9
					c-0.6,1.5-1.5,2.7-2.8,3.5c-1.3,0.8-2.8,1.2-4.5,1.2c-1.4,0-2.8-0.3-3.9-1c-1.2-0.7-2.1-1.6-2.8-2.9c-0.7-1.2-1-2.6-1-4.2
					C63.7,24.1,64,22.7,64.7,21.5z"/>
				<path class="st0" d="M84.1,33c-0.9-0.5-1.7-1.3-2.2-2.2c-0.5-1-0.8-2.1-0.8-3.4c0-1.3,0.3-2.4,0.8-3.4c0.5-1,1.3-1.7,2.2-2.2
					c0.9-0.5,2-0.8,3.1-0.8c1.2,0,2.2,0.3,3.2,0.8c0.9,0.5,1.7,1.3,2.2,2.2c0.5,1,0.8,2.1,0.8,3.4c0,1.3-0.3,2.4-0.8,3.4
					c-0.5,1-1.3,1.7-2.2,2.2c-1,0.5-2,0.8-3.2,0.8C86.1,33.8,85,33.5,84.1,33z M89.5,31.8c0.7-0.4,1.3-0.9,1.7-1.7
					c0.4-0.7,0.6-1.7,0.6-2.8c0-1.1-0.2-2-0.6-2.8c-0.4-0.7-1-1.3-1.7-1.7c-0.7-0.4-1.4-0.6-2.3-0.6S85.7,22.6,85,23
					c-0.7,0.4-1.2,0.9-1.7,1.7c-0.4,0.7-0.6,1.7-0.6,2.8c0,1.1,0.2,2,0.6,2.8c0.4,0.7,1,1.3,1.7,1.7c0.7,0.4,1.4,0.6,2.3,0.6
					C88.1,32.4,88.8,32.2,89.5,31.8z"/>
				<path class="st0" d="M96.4,18.6c-0.2-0.2-0.3-0.5-0.3-0.8c0-0.3,0.1-0.6,0.3-0.8c0.2-0.2,0.5-0.3,0.8-0.3c0.3,0,0.6,0.1,0.8,0.3
					c0.2,0.2,0.3,0.5,0.3,0.8c0,0.3-0.1,0.6-0.3,0.8c-0.2,0.2-0.5,0.3-0.8,0.3C96.9,18.9,96.6,18.8,96.4,18.6z M98,21.2v12.4h-1.6
					V21.2H98z"/>
				<path class="st0" d="M111,22.4c0.9,0.9,1.4,2.2,1.4,4v7.2h-1.6v-7.1c0-1.3-0.3-2.4-1-3.1c-0.7-0.7-1.6-1.1-2.8-1.1
					c-1.2,0-2.1,0.4-2.9,1.1c-0.7,0.8-1.1,1.9-1.1,3.3v6.7h-1.6V21.2h1.6v2.1c0.4-0.8,1-1.3,1.7-1.7c0.7-0.4,1.6-0.6,2.5-0.6
					C108.8,21,110.1,21.5,111,22.4z"/>
				<path class="st0" d="M135.1,17.8l-4.5,15.8h-1.8l-4-13.5l-4.1,13.5l-1.7,0l-4.4-15.9h1.7l3.6,13.9l4.1-13.9h1.8l3.9,13.9
					l3.6-13.9H135.1z"/>
				<path class="st0" d="M137.6,24.1c0.5-1,1.2-1.7,2.1-2.2c0.9-0.5,1.9-0.8,3-0.8c1.2,0,2.2,0.3,3,0.8c0.9,0.5,1.5,1.2,1.8,2.1
					v-2.7h1.6v12.4h-1.6v-2.7c-0.4,0.8-1,1.5-1.9,2.1c-0.9,0.6-1.9,0.8-3,0.8c-1.1,0-2.1-0.3-3-0.8c-0.9-0.5-1.6-1.3-2.1-2.2
					c-0.5-1-0.8-2.1-0.8-3.4S137.1,25,137.6,24.1z M147,24.8c-0.4-0.8-1-1.3-1.7-1.7c-0.7-0.4-1.5-0.6-2.3-0.6
					c-0.9,0-1.7,0.2-2.4,0.6c-0.7,0.4-1.2,1-1.6,1.7c-0.4,0.7-0.6,1.6-0.6,2.7c0,1,0.2,1.9,0.6,2.7c0.4,0.8,0.9,1.3,1.6,1.7
					c0.7,0.4,1.5,0.6,2.4,0.6c0.8,0,1.6-0.2,2.3-0.6c0.7-0.4,1.3-1,1.7-1.7c0.4-0.8,0.6-1.6,0.6-2.6C147.6,26.4,147.4,25.5,147,24.8
					z"/>
				<path class="st0" d="M154.4,16.8v16.8h-1.6V16.8H154.4z"/>
				<path class="st0" d="M159.6,16.8v16.8H158V16.8H159.6z"/>
				<path class="st0" d="M174.3,28h-10.3c0,0.9,0.3,1.7,0.7,2.4c0.4,0.7,0.9,1.2,1.6,1.5c0.7,0.3,1.4,0.5,2.2,0.5
					c1,0,1.9-0.2,2.6-0.7c0.7-0.5,1.2-1.2,1.4-2h1.7c-0.3,1.2-0.9,2.2-1.9,3c-1,0.8-2.2,1.1-3.7,1.1c-1.2,0-2.2-0.3-3.1-0.8
					c-0.9-0.5-1.6-1.3-2.2-2.2c-0.5-1-0.8-2.1-0.8-3.4c0-1.3,0.3-2.4,0.8-3.4c0.5-1,1.2-1.7,2.2-2.2c0.9-0.5,2-0.8,3.1-0.8
					c1.2,0,2.2,0.3,3.1,0.8c0.9,0.5,1.6,1.2,2,2.1c0.5,0.9,0.7,1.8,0.7,2.9C174.4,27.3,174.4,27.7,174.3,28z M172.2,24.4
					c-0.4-0.6-0.9-1.1-1.6-1.5c-0.7-0.3-1.4-0.5-2.2-0.5c-1.2,0-2.2,0.4-3,1.1c-0.8,0.8-1.3,1.8-1.4,3.2h8.7
					C172.8,25.8,172.6,25,172.2,24.4z"/>
				<path class="st0" d="M179.3,22.6v7.7c0,0.8,0.1,1.3,0.4,1.6c0.3,0.3,0.8,0.4,1.5,0.4h1.4v1.4H181c-1.1,0-1.9-0.3-2.5-0.8
					c-0.5-0.5-0.8-1.4-0.8-2.6v-7.7H176v-1.3h1.7v-3.1h1.6v3.1h3.4v1.3H179.3z"/>
			</g>
		</g>
		<g>
			<path class="st0" d="M22,20.3c-0.9,1-1.3,2.2-1.3,3.8c0,1.5,0.4,2.8,1.3,3.7c0.8,1,2,1.5,3.4,1.6c1.4,0.1,2.6-0.2,3.7-0.9V32
				c-0.9,0.4-2.1,0.6-3.5,0.6l0,3.4l-2.7-0.3l0-3.5c-1.5-0.4-2.8-1.1-3.8-2.2c-1.4-1.5-2.1-3.4-2.1-5.7c0-2.5,0.7-4.5,2.3-6.1
				c1-1,2.2-1.8,3.5-2.2l0-3l2.7-0.2l0,2.8c1.4,0,2.6,0.1,3.5,0.5v3.7c-1-0.7-2.2-1-3.5-1C24.1,18.9,22.9,19.4,22,20.3z"/>
		</g>
	</g>
	
		<linearGradient id="SVGID_1_" gradientUnits="userSpaceOnUse" x1="60.8874" y1="-21.6881" x2="109.6543" y2="-49.8437" gradientTransform="matrix(0.9909 0.1347 -0.1347 0.9909 -65.1413 47.6156)">
		<stop  offset="0" style="stop-color:#2CABE4"/>
		<stop  offset="0.8101" style="stop-color:#F740CE"/>
	</linearGradient>
	<path class="st1" d="M44.5,33.2l-1.4,10c-0.3,2.2-2.3,3.7-4.5,3.4L4,42c-2.2-0.3-3.7-2.3-3.4-4.5L5.2,4c0.3-2.2,2.3-3.7,4.5-3.4
		l34.6,4.7c2.2,0.3,3.7,2.3,3.4,4.5l-1.4,10.4L46,22l-3.1-0.4c-1.2-0.2-2.4,0.2-3.4,0.9c-0.9,0.7-1.6,1.8-1.8,3
		c-0.3,2.5,1.4,4.8,3.9,5.1l3.1,0.4L44.5,33.2z"/>
	
		<linearGradient id="SVGID_2_" gradientUnits="userSpaceOnUse" x1="-1.8776" y1="45.6521" x2="-1.8776" y2="45.6521" gradientTransform="matrix(0.9953 -9.716458e-02 9.716458e-02 0.9953 42.6239 -39.5387)">
		<stop  offset="0" style="stop-color:#2CABE4"/>
		<stop  offset="0.8101" style="stop-color:#F740CE"/>
	</linearGradient>
	<path class="st2" d="M45.2,6.1"/>
	
		<linearGradient id="SVGID_3_" gradientUnits="userSpaceOnUse" x1="-5.596" y1="41.9337" x2="-5.596" y2="41.9337" gradientTransform="matrix(0.9953 -9.716458e-02 9.716458e-02 0.9953 42.6239 -39.5387)">
		<stop  offset="0" style="stop-color:#2CABE4"/>
		<stop  offset="0.8101" style="stop-color:#F740CE"/>
	</linearGradient>
	<path class="st3" d="M41.1,2.7"/>
	<circle class="st4" cx="42" cy="26.1" r="1.1"/>
	<linearGradient id="SVGID_4_" gradientUnits="userSpaceOnUse" x1="18.3093" y1="9.1052" x2="18.3093" y2="9.1052">
		<stop  offset="0" style="stop-color:#2CABE4"/>
		<stop  offset="0.8101" style="stop-color:#F740CE"/>
	</linearGradient>
	<path class="st5" d="M18.3,9.1"/>
</g>
</svg>
