<?xml version="1.0" encoding="utf-8"?>
<!-- Generator: Adobe Illustrator 24.2.2, SVG Export Plug-In . SVG Version: 6.00 Build 0)  -->
<svg version="1.1" id="Layer_1" xmlns="http://www.w3.org/2000/svg" xmlns:xlink="http://www.w3.org/1999/xlink" x="0px" y="0px"
	 viewBox="0 0 205.49 41.07" style="enable-background:new 0 0 205.49 41.07;" xml:space="preserve">
<style type="text/css">
	.st0{fill:url(#SVGID_1_);}
	.st1{fill:url(#SVGID_2_);}
	.st2{opacity:0.04;fill:#FFFFFF;}
	.st3{fill:url(#SVGID_3_);}
	.st4{opacity:0.78;fill:#FFFFFF;}
	.st5{fill:#0047C6;}
	.st6{fill:#FFFFFF;}
	.st7{fill:#3691FF;}
</style>
<g>
	<g>
		<path class="st6" d="M64.29,12.69c1.9,0,3.41,0.92,4.36,1.97l-1.14,1.29c-0.85-0.9-1.87-1.48-3.19-1.48
			c-3.04,0-5.06,2.48-5.06,6.45c0,4.02,1.92,6.55,4.96,6.55c1.51,0,2.63-0.63,3.65-1.78l1.14,1.24c-1.24,1.46-2.82,2.31-4.84,2.31
			c-4.02,0-7.01-3.07-7.01-8.27C57.15,15.83,60.2,12.69,64.29,12.69z"/>
		<path class="st6" d="M71.73,17.12h1.66l0.17,2.14h0.07c0.8-1.48,2.02-2.43,3.36-2.43c0.51,0,0.88,0.07,1.27,0.24l-0.39,1.75
			c-0.39-0.12-0.66-0.19-1.14-0.19c-1,0-2.19,0.73-2.99,2.73v7.59h-2V17.12z"/>
		<path class="st6" d="M80.74,32.38c1.34,0,2.19-1.07,2.68-2.53l0.27-0.88l-4.75-11.85H81l2.41,6.55c0.37,1.02,0.78,2.24,1.14,3.33
			h0.1c0.34-1.07,0.68-2.29,1-3.33l2.12-6.55h1.95l-4.45,12.8c-0.83,2.34-2.04,4.11-4.43,4.11c-0.54,0-1-0.1-1.39-0.24l0.39-1.58
			C80.08,32.28,80.44,32.38,80.74,32.38z"/>
		<path class="st6" d="M94,29.95v3.99h-2V17.12h1.66l0.17,1.36h0.07c1.07-0.9,2.39-1.65,3.77-1.65c3.04,0,4.67,2.36,4.67,6.04
			c0,4.02-2.41,6.38-5.11,6.38c-1.1,0-2.19-0.51-3.29-1.36L94,29.95z M96.9,27.56c1.95,0,3.38-1.78,3.38-4.7
			c0-2.6-0.88-4.36-3.12-4.36c-1,0-2,0.56-3.16,1.61v6.21C95.07,27.22,96.12,27.56,96.9,27.56z"/>
		<path class="st6" d="M105.85,18.75h-1.75v-1.51l1.85-0.12l0.24-3.31h1.68v3.31h3.19v1.63h-3.19v6.57c0,1.46,0.46,2.29,1.83,2.29
			c0.41,0,0.95-0.17,1.34-0.32l0.39,1.51c-0.66,0.22-1.46,0.44-2.19,0.44c-2.53,0-3.38-1.61-3.38-3.94V18.75z"/>
		<path class="st6" d="M118.1,16.83c2.9,0,5.48,2.26,5.48,6.23c0,3.92-2.58,6.18-5.48,6.18c-2.9,0-5.48-2.26-5.48-6.18
			C112.62,19.09,115.2,16.83,118.1,16.83z M118.1,27.59c2.04,0,3.41-1.83,3.41-4.53c0-2.73-1.36-4.58-3.41-4.58
			c-2.02,0-3.41,1.85-3.41,4.58C114.69,25.76,116.08,27.59,118.1,27.59z"/>
		<path class="st7" d="M129.66,16.1h-4.38v-3.02h12.31v3.02h-4.36v12.85h-3.58V16.1z"/>
		<path class="st7" d="M138.76,16.88h2.92l0.24,2.12h0.1c0.88-1.63,2.19-2.41,3.43-2.41c0.68,0,1.1,0.1,1.44,0.24l-0.58,3.09
			c-0.44-0.12-0.8-0.19-1.31-0.19c-0.9,0-2.02,0.58-2.65,2.21v7.01h-3.58V16.88z"/>
		<path class="st7" d="M154.09,21.18c-0.07-1.07-0.61-1.75-1.9-1.75c-1.02,0-2.04,0.41-3.21,1.1l-1.27-2.36
			c1.53-0.92,3.26-1.58,5.16-1.58c3.09,0,4.79,1.75,4.79,5.45v6.91h-2.92l-0.27-1.24h-0.07c-1.02,0.9-2.17,1.53-3.53,1.53
			c-2.19,0-3.58-1.61-3.58-3.65C147.3,23.06,149.32,21.67,154.09,21.18z M152.1,26.47c0.83,0,1.36-0.39,2-1.02v-2.12
			c-2.56,0.34-3.38,1.07-3.38,2C150.71,26.1,151.24,26.47,152.1,26.47z"/>
		<path class="st7" d="M166.31,16.58c1.48,0,2.73,0.56,3.53,1.39l-1.63,2.21c-0.58-0.49-1.12-0.71-1.68-0.71
			c-1.73,0-2.82,1.34-2.82,3.43c0,2.09,1.14,3.43,2.7,3.43c0.88,0,1.58-0.41,2.17-0.88l1.44,2.26c-1.17,1.02-2.7,1.51-4.02,1.51
			c-3.36,0-5.96-2.31-5.96-6.33S162.97,16.58,166.31,16.58z"/>
		<path class="st7" d="M172.1,11.89h3.48v9.78h0.1l3.82-4.79h3.89l-4.23,4.96l4.55,7.11h-3.87l-2.73-4.7l-1.53,1.73v2.97h-3.48
			V11.89z"/>
		<path class="st7" d="M189.75,16.58c3.43,0,5.14,2.51,5.14,5.79c0,0.63-0.07,1.22-0.15,1.51h-7.23c0.32,1.83,1.53,2.63,3.14,2.63
			c0.9,0,1.73-0.27,2.6-0.8l1.19,2.17c-1.24,0.85-2.85,1.36-4.28,1.36c-3.46,0-6.11-2.34-6.11-6.33
			C184.05,18.99,186.85,16.58,189.75,16.58z M191.84,21.67c0-1.39-0.58-2.36-2.02-2.36c-1.12,0-2.09,0.75-2.34,2.36H191.84z"/>
		<path class="st7" d="M197.36,16.88h2.92l0.24,2.12h0.1c0.88-1.63,2.19-2.41,3.43-2.41c0.68,0,1.1,0.1,1.44,0.24l-0.58,3.09
			c-0.44-0.12-0.8-0.19-1.31-0.19c-0.9,0-2.02,0.58-2.65,2.21v7.01h-3.58V16.88z"/>
	</g>
	<path class="st4" d="M20.54,0C9.2,0,0,9.2,0,20.54c0,11.34,9.2,20.53,20.54,20.53c11.34,0,20.53-9.19,20.53-20.53
		C41.07,9.2,31.88,0,20.54,0z M25.86,15.88c-1.14-0.69-2.44-1.03-3.89-1.03c-1.61,0-2.9,0.51-3.88,1.51
		c-0.98,1.01-1.48,2.37-1.48,4.09c0,1.65,0.46,2.96,1.39,3.94c0.93,0.98,2.18,1.46,3.74,1.46c1.5,0,2.87-0.36,4.12-1.08v3.5
		c-1.03,0.49-2.31,0.79-3.86,0.87v3.56h-3V29c-1.69-0.3-3.09-1.01-4.18-2.13c-1.49-1.54-2.25-3.59-2.25-6.15
		c0-2.72,0.85-4.94,2.53-6.63c1.09-1.1,2.39-1.84,3.9-2.22V8.7h3v2.86c1.52,0.02,2.8,0.23,3.86,0.62V15.88z"/>
</g>
</svg>
