<svg id="Layer_1" data-name="Layer 1" xmlns="http://www.w3.org/2000/svg" viewBox="0 0 408.9 408.54"><defs><style>.cls-1{opacity:0.78;}.cls-2{fill:#fff;}</style></defs><g class="cls-1"><path class="cls-2" d="M187.82,0h31.92c4.1,1.46,8.45,1.26,12.67,1.86C272.79,7.59,308.56,23.6,339.1,50.65c38.95,34.5,61.89,77.63,68.35,129.41.35,2.76-.2,5.75,1.45,8.3v32.72c-1.29.42-.76,1.54-.84,2.36a202.6,202.6,0,0,1-14.87,59.63c-37.75,88.66-128.71,138.64-223.5,122.44-54-9.22-97.58-36.31-129.68-80.4C.44,270.75-9.45,210.35,8.89,145.81,30.3,70.45,96.77,13.4,174.79,2.17,179.14,1.55,183.66,1.82,187.82,0ZM156.1,224.31c-48.68-35-46.33-98.17-12.51-131.91s89.48-33.36,122.53.52c33.83,34.69,34.63,97.25-13,131.29q67.68,27.31,87.66,97.42C393.53,264.06,407.1,157.57,336.77,82,264.71,4.53,145.62,4.19,73.22,81.08,2.28,156.41,15.14,263.42,68.34,321.63,81.56,274.92,110.81,242.67,156.1,224.31Zm49.6,160.38c6.14-.43,13.57-.57,21-1.49,34.34-4.27,64.79-17.54,91.72-39.14a3.36,3.36,0,0,0,1.53-3.63,114.16,114.16,0,0,0-15.5-44c-27.6-45.14-78.62-65.74-130-52.64-44.34,11.33-78.74,50.4-85.25,96.68a3.37,3.37,0,0,0,1.57,3.6C124,370.72,161.91,384.15,205.7,384.69Zm-1.12-169.64a62.25,62.25,0,0,0,62.1-61.8c.24-34-28-62.25-62.1-62.25s-62.34,28.26-62.1,62.25A62.25,62.25,0,0,0,204.58,215.05Z"/></g></svg>